<svg width="102" height="104" viewBox="0 0 102 104" fill="none" xmlns="http://www.w3.org/2000/svg">
<path d="M53.82 10.17C74.69 10.99 91.82 27.77 92.84 48.66H101.28V54.46H92.84C92.1 72.99 79.07 87.94 61.22 92.18C58.81 92.75 55.72 92.49 53.82 93.74V103.5C51.7 104.05 50.14 104.05 48.02 103.5V92.95C27.66 92.45 9.92 74.91 9.53 54.45H0.569992V48.65H9.00999C10.32 28.15 27.15 10.45 48.03 10.16V0.93L48.9 0.220009C49.57 0.0700087 50.25 0.100014 50.93 0.100014C52.01 0.100014 53.16 -0.0799791 53.83 0.920021V10.15L53.82 10.17ZM85.46 48.66C85.53 33.45 72 20.46 57.63 17.7C56.47 17.48 54.5 16.8 53.82 17.82V28.1C64.75 29.42 72.85 37.84 74.39 48.67H85.46V48.66ZM48.02 17.55C32.09 18.37 17.29 32.46 16.91 48.66H27.98C29.66 38.03 37.17 29.61 48.02 28.09V17.54V17.55ZM53.82 40.23L48.51 40L47.76 34.96C41.68 37.28 35.83 41.68 35.36 48.66H39.58V54.47H35.36C35.52 60.44 41.61 66.85 47.29 68.12C48.79 68.45 47.7 64.37 48.01 63.43H53.82V68.18C60.48 66.77 66.08 61.17 67 54.47H62.78V48.66H67C67.13 43.21 59.68 35.69 54.6 34.95C52.98 34.71 54.16 39.15 53.81 40.23H53.82ZM27.98 54.46H16.91C17.72 71.05 31.72 84.47 48.02 86.1V75.03C37.18 74.09 29.77 64.69 27.98 54.46ZM85.46 54.46H74.39C72.87 65.01 64.72 74.06 53.82 75.03V86.1C70.23 84.68 85.04 71.42 85.46 54.46Z" fill="#575DA7"/>
<path d="M55.23 47.25C60.86 52.23 52.83 61.5 46.92 55.82C41.46 50.57 49.5 42.18 55.23 47.25Z" fill="#575DA7"/>
</svg>
