<svg width="382" height="104" viewBox="0 0 382 104" fill="none" xmlns="http://www.w3.org/2000/svg">
<path d="M53.82 10.17C74.69 10.99 91.82 27.77 92.84 48.66H101.28V54.46H92.84C92.1 72.99 79.07 87.94 61.22 92.18C58.81 92.75 55.72 92.49 53.82 93.74V103.5C51.7 104.05 50.14 104.05 48.02 103.5V92.95C27.66 92.45 9.92 74.91 9.53 54.45H0.569992V48.65H9.00999C10.32 28.15 27.15 10.45 48.03 10.16V0.93L48.9 0.220009C49.57 0.0700087 50.25 0.100014 50.93 0.100014C52.01 0.100014 53.16 -0.0799791 53.83 0.920021V10.15L53.82 10.17ZM85.46 48.66C85.53 33.45 72 20.46 57.63 17.7C56.47 17.48 54.5 16.8 53.82 17.82V28.1C64.75 29.42 72.85 37.84 74.39 48.67H85.46V48.66ZM48.02 17.55C32.09 18.37 17.29 32.46 16.91 48.66H27.98C29.66 38.03 37.17 29.61 48.02 28.09V17.54V17.55ZM53.82 40.23L48.51 40L47.76 34.96C41.68 37.28 35.83 41.68 35.36 48.66H39.58V54.47H35.36C35.52 60.44 41.61 66.85 47.29 68.12C48.79 68.45 47.7 64.37 48.01 63.43H53.82V68.18C60.48 66.77 66.08 61.17 67 54.47H62.78V48.66H67C67.13 43.21 59.68 35.69 54.6 34.95C52.98 34.71 54.16 39.15 53.81 40.23H53.82ZM27.98 54.46H16.91C17.72 71.05 31.72 84.47 48.02 86.1V75.03C37.18 74.09 29.77 64.69 27.98 54.46ZM85.46 54.46H74.39C72.87 65.01 64.72 74.06 53.82 75.03V86.1C70.23 84.68 85.04 71.42 85.46 54.46Z" fill="#575DA7"/>
<path d="M248.92 22.3V72.92H241.54V68.17C238.91 71.06 236.33 73.08 232.24 73.38C209.35 75.06 210.65 32.84 233.77 37.18C235.57 37.52 238.83 39.54 239.99 40.99C240.55 41.69 240.12 42.92 241.02 42.86V22.29H248.93L248.92 22.3ZM230.85 44.57C221.58 46.09 221.35 63 229.3 65.9C234.97 67.97 240.08 64.79 241 58.94C242.12 51.9 239.53 43.14 230.84 44.56L230.85 44.57Z" fill="#575DA7"/>
<path d="M210.95 72.92H203.3C201.65 72.92 203.48 68.85 202.77 68.7C201.68 68.5 201.96 69.59 201.14 70.21C193.57 75.95 180.16 74.05 180.47 62.63C180.74 52.48 195.38 50.93 203.04 51.3C203.63 44.32 195.54 41.89 190.41 45.26C189.36 45.95 188.15 48.1 186.97 48.13L181.98 45.19C185.75 34.08 207.3 34.11 210.06 45.6L210.95 72.92ZM203.05 56.57C202.74 56.26 195.28 57.15 194.31 57.37C182.51 60.11 189.77 71.3 199.73 65.64C203.6 63.45 203.19 60.52 203.05 56.56V56.57Z" fill="#575DA7"/>
<path d="M176.69 57.63H151.91C153.18 67.25 163.32 69.87 170.09 63.42C171.13 63.94 175.28 66.18 175.07 67.31C167.31 76.63 151.12 75.14 146 63.79C141.6 54.05 146.26 38.54 158.03 37.12C171.58 35.48 177.19 45.48 176.69 57.63ZM168.78 51.83C168.13 39.88 153.68 41.07 151.91 51.83H168.78Z" fill="#575DA7"/>
<path d="M381.28 57.63H356.5C356.82 64.59 362.55 68.38 369.3 67C371.5 66.55 373.25 64.49 375.12 63.5C376.18 64.53 380.08 66.18 379.64 67.82C370.06 78.5 350.93 73.88 349.17 58.9C345.85 30.66 384.17 29.52 381.28 57.64V57.63ZM373.37 52.36C373.57 39.9 357.53 40.86 356.5 52.36H373.37Z" fill="#39454C"/>
<path d="M286.36 38.12L295.33 63.43L304.29 38.12H312.2L297.53 79.08C296.41 81.78 291.76 87.16 288.74 87.16H280.57L281.12 80.86C286.93 81.44 290.57 78.68 292.13 73.19L277.93 38.12H286.37H286.36Z" fill="#39454C"/>
<path d="M121.84 23.88V65.01H142.4V72.92H113.93V23.88H121.84Z" fill="#575DA7"/>
<path d="M321.96 38.12L331.19 63.96L340.68 38.12H348.59L335.87 72.86L328.26 72.96L314.31 38.12H321.96Z" fill="#39454C"/>
<path d="M262.63 38.12V43.92C266.05 39.95 269.7 37.26 275.29 38.12V45.5C270.22 44.38 263.26 48.36 262.62 53.66C261.94 59.3 262.92 66.63 262.93 72.41L255.25 72.92V38.12H262.63Z" fill="#39454C"/>
<path d="M55.23 47.25C60.86 52.23 52.83 61.5 46.92 55.82C41.46 50.57 49.5 42.18 55.23 47.25Z" fill="#575DA7"/>
</svg>
